<?xml version="1.0" standalone="no"?>
<!DOCTYPE svg PUBLIC "-//W3C//DTD SVG 20010904//EN"
 "http://www.w3.org/TR/2001/REC-SVG-20010904/DTD/svg10.dtd">
<svg version="1.0" xmlns="http://www.w3.org/2000/svg"
 width="512.000000pt" height="512.000000pt" viewBox="0 0 512.000000 512.000000"
 preserveAspectRatio="xMidYMid meet">

<g transform="translate(0.000000,512.000000) scale(0.100000,-0.100000)"
fill="#000000" stroke="none">
<path d="M661 5103 c-60 -51 -103 -568 -66 -803 8 -52 16 -104 18 -114 1 -15
-67 -70 -288 -232 -160 -117 -298 -223 -307 -235 -10 -12 -18 -31 -18 -43 0
-44 165 -282 290 -420 44 -47 57 -56 86 -56 43 0 74 30 74 70 0 23 -17 50 -71
113 -75 86 -164 206 -158 211 2 2 39 -1 83 -5 265 -30 560 -128 789 -262 182
-108 383 -268 492 -391 l55 -63 -15 -36 c-20 -49 -19 -115 4 -160 10 -20 15
-37 11 -37 -15 0 -247 83 -353 126 -195 80 -438 210 -556 298 -39 29 -76 33
-108 11 -23 -16 -37 -57 -28 -86 9 -27 205 -155 367 -239 l137 -71 -25 -55
c-79 -180 -152 -478 -175 -714 -15 -164 -6 -454 21 -632 40 -271 125 -554 249
-833 80 -182 204 -409 234 -430 19 -13 163 -15 1217 -15 1253 0 1293 1 1467
45 230 59 493 203 493 272 0 27 -49 83 -73 83 -8 0 -42 -18 -76 -40 -93 -60
-212 -118 -311 -150 -160 -52 -253 -60 -714 -60 -229 0 -416 3 -416 6 0 3 20
34 45 68 27 38 45 74 45 91 0 27 -7 35 -148 160 l-33 30 51 106 c61 125 59
136 -24 199 -31 24 -56 45 -56 49 0 3 51 21 112 39 152 45 322 112 446 177
372 194 562 466 562 806 0 94 -21 129 -76 129 -60 0 -70 -21 -77 -156 -8 -179
-52 -293 -165 -424 l-44 -50 -68 137 c-106 214 -249 418 -482 688 -54 63 -98
116 -98 118 0 11 152 108 225 144 175 88 341 126 545 126 154 0 265 -18 398
-64 406 -143 701 -479 798 -911 25 -107 25 -366 1 -478 -37 -174 -119 -360
-212 -485 -54 -72 -59 -112 -19 -144 54 -42 87 -24 164 89 98 145 173 321 211
500 30 139 33 401 6 529 -94 442 -353 781 -745 976 -188 95 -379 138 -602 138
-291 0 -535 -74 -774 -237 l-99 -67 -23 23 c-12 13 -61 68 -108 122 l-85 99
142 77 c227 122 365 216 540 368 153 133 314 329 388 474 35 69 36 89 7 122
-13 14 -151 120 -308 235 -215 157 -284 213 -283 227 2 11 10 62 18 114 19
122 19 339 0 505 -38 329 -54 352 -204 280 -161 -77 -350 -232 -485 -397 l-69
-84 -63 17 c-147 41 -254 53 -464 53 -211 0 -317 -12 -465 -53 l-63 -18 -40
51 c-144 184 -338 347 -514 431 -82 39 -107 43 -137 18z m182 -215 c134 -87
251 -200 390 -375 63 -80 83 -88 151 -59 18 7 73 23 122 34 259 61 599 51 831
-23 119 -38 123 -37 189 48 102 128 164 195 248 266 78 66 200 151 218 151 4
0 8 -14 8 -30 0 -23 -15 -49 -64 -104 -83 -95 -172 -229 -231 -346 -65 -129
-64 -130 95 -232 123 -78 322 -218 552 -389 l118 -87 -83 -12 c-471 -68 -937
-311 -1302 -679 l-100 -101 -104 0 -104 0 -103 108 c-334 351 -793 595 -1260
667 -60 10 -110 18 -112 20 -9 8 516 384 666 478 127 79 143 98 123 155 -36
103 -215 376 -300 456 -23 22 -31 39 -31 63 0 18 4 33 8 33 5 0 38 -19 75 -42z
m-62 -275 c23 -31 66 -97 96 -147 l53 -89 -88 -57 -87 -56 -8 25 c-10 28 -23
381 -14 381 2 0 24 -26 48 -57z m2240 -265 c-5 -39 -12 -72 -15 -75 -8 -9
-166 98 -166 112 0 15 98 172 148 238 l37 48 3 -127 c1 -70 -2 -158 -7 -196z
m529 -756 c0 -21 -142 -191 -241 -287 -230 -224 -507 -400 -850 -541 -87 -36
-333 -124 -345 -124 -1 0 7 17 17 37 23 45 24 111 4 160 l-16 37 78 79 c342
347 813 583 1266 636 40 5 75 9 80 10 4 0 7 -2 7 -7z m-1562 -804 c22 -22 12
-42 -48 -108 l-60 -65 -60 65 c-92 100 -82 120 60 120 61 0 100 -4 108 -12z
m-563 -233 c83 -29 217 -72 299 -95 l149 -42 101 26 c56 15 111 29 124 33 19
4 9 -12 -48 -83 -209 -260 -356 -592 -435 -980 -28 -137 -55 -351 -55 -436 0
-31 -5 -60 -10 -63 -17 -10 -157 83 -233 154 -126 119 -206 257 -249 428 -19
73 -22 114 -22 243 1 238 46 484 132 726 51 142 59 157 80 149 9 -4 85 -31
167 -60z m1376 -256 c412 -464 557 -666 669 -939 l31 -74 -23 -18 c-37 -29
-235 -123 -339 -162 -53 -19 -170 -56 -260 -81 -396 -111 -568 -192 -756 -353
-128 -110 -243 -294 -281 -449 l-17 -73 -41 0 c-41 0 -42 0 -48 43 -29 208
-42 571 -27 780 20 285 59 491 136 723 124 375 338 687 592 868 l78 56 30 -33
c17 -18 132 -148 256 -288z m-1477 -1430 c39 -28 105 -68 147 -89 l76 -39 7
-148 c7 -155 22 -341 32 -405 l6 -38 -56 0 -55 0 -105 213 c-57 116 -125 266
-149 333 -42 111 -107 324 -107 347 0 5 30 -21 66 -57 37 -37 98 -90 138 -117z
m1420 -110 c39 -29 73 -54 75 -55 3 -2 -17 -48 -42 -102 -26 -53 -47 -106 -47
-117 0 -30 20 -54 99 -120 39 -33 69 -65 67 -71 -3 -7 -26 -42 -52 -78 l-48
-66 -408 0 c-236 0 -408 4 -408 9 0 5 11 41 24 81 79 233 295 433 584 540 42
16 79 29 81 30 2 0 35 -23 75 -51z"/>
<path d="M1440 3690 c-28 -28 -26 -75 5 -105 30 -30 54 -31 89 -4 30 24 35 72
10 107 -20 29 -76 30 -104 2z"/>
<path d="M2216 3688 c-25 -35 -20 -83 10 -107 35 -27 59 -26 89 4 50 49 20
125 -49 125 -25 0 -39 -7 -50 -22z"/>
</g>
</svg>
