<?xml version="1.0" standalone="no"?>
<!DOCTYPE svg PUBLIC "-//W3C//DTD SVG 20010904//EN"
 "http://www.w3.org/TR/2001/REC-SVG-20010904/DTD/svg10.dtd">
<svg version="1.0" xmlns="http://www.w3.org/2000/svg"
 width="500.000000pt" height="500.000000pt" viewBox="0 0 500.000000 500.000000"
 preserveAspectRatio="xMidYMid meet">

<g transform="translate(0.000000,500.000000) scale(0.100000,-0.100000)"
fill="#000000" stroke="none">
<path d="M2385 4083 c-177 -23 -387 -178 -470 -345 -50 -102 -59 -191 -25
-258 12 -25 30 -76 40 -115 l19 -70 -26 -37 c-65 -96 -19 -226 88 -253 18 -5
32 -19 45 -47 33 -74 133 -137 247 -154 23 -4 52 -17 65 -29 12 -13 36 -28 52
-35 35 -14 36 -20 14 -62 l-16 -30 -44 43 c-33 33 -41 46 -32 56 25 31 -13 10
-61 -33 -96 -87 -140 -225 -121 -382 5 -40 18 -94 29 -120 16 -37 21 -81 26
-217 6 -176 16 -267 38 -332 11 -34 16 -38 51 -41 82 -7 97 13 121 153 10 63
57 215 66 215 20 0 58 -114 89 -268 18 -85 33 -103 93 -104 27 0 52 3 56 8 23
27 66 414 54 491 -3 21 4 55 23 100 25 61 28 79 28 183 -1 129 -13 173 -69
255 -19 28 -59 68 -89 89 -30 22 -53 43 -51 46 3 4 26 10 52 13 115 13 223 78
263 158 14 27 28 39 50 44 44 10 86 49 106 100 14 38 15 52 5 92 -7 27 -22 58
-33 70 l-20 22 21 88 c12 48 27 108 33 132 14 61 -2 152 -43 238 -24 51 -52
88 -115 150 -154 151 -344 215 -559 186z m-60 -535 c11 -18 25 -48 31 -68 l11
-35 14 30 c7 17 14 31 15 33 1 2 18 -7 38 -19 38 -22 101 -40 110 -32 3 3 -2
16 -11 29 -23 36 -13 37 37 4 25 -17 53 -30 63 -30 16 0 18 5 12 33 -4 17 -9
43 -12 57 l-5 25 21 -25 c11 -14 24 -40 27 -59 6 -32 8 -33 20 -16 8 10 14 27
14 38 0 14 13 5 50 -33 28 -28 56 -50 62 -48 8 3 12 21 11 49 l-2 44 19 -40
c11 -22 20 -46 20 -52 0 -20 18 -15 25 7 11 33 22 23 29 -27 3 -25 20 -74 38
-109 l32 -63 -28 -113 c-15 -62 -36 -131 -45 -153 -33 -76 -112 -123 -256
-154 -66 -14 -81 -21 -83 -38 -2 -11 -14 -25 -28 -31 -13 -7 -29 -23 -36 -37
-14 -30 -24 -32 -33 -4 -4 11 -22 27 -41 36 -23 12 -34 24 -34 38 0 19 -8 23
-71 34 -80 13 -181 56 -221 93 -37 36 -51 68 -82 191 l-27 108 35 64 c20 35
37 76 38 90 2 18 10 30 26 36 22 8 22 10 8 31 -9 12 -16 34 -16 48 1 22 2 23
11 8 12 -22 90 -68 113 -68 16 0 16 2 2 22 -26 36 -19 39 34 11 28 -14 53 -24
56 -20 3 3 -2 29 -10 58 -27 90 -17 117 19 57z m-336 -384 c32 -99 38 -144 21
-144 -22 0 -80 64 -89 98 -14 52 5 142 28 142 5 0 23 -43 40 -96z m1091 2 c0
-61 -25 -108 -70 -131 -18 -9 -34 -14 -36 -12 -7 6 31 154 52 202 l16 40 19
-24 c13 -16 19 -39 19 -75z m-436 -415 c17 -19 17 -21 -15 -60 l-34 -40 -22
27 c-30 36 -28 43 10 69 40 27 40 27 61 4z m-287 -71 c19 -22 43 -45 54 -51
17 -9 22 -5 38 31 10 23 21 38 24 33 3 -5 7 -156 8 -335 2 -340 -4 -398 -41
-398 -27 0 -205 74 -214 89 -6 8 0 71 25 261 19 144 21 211 8 208 -7 -2 -18
19 -25 47 l-13 49 41 53 c22 29 45 53 51 53 5 0 26 -18 44 -40z m372 -7 c29
-34 41 -57 40 -78 -1 -46 -14 -80 -29 -77 -10 2 -12 -15 -6 -85 4 -48 9 -101
11 -118 15 -105 26 -258 19 -265 -13 -11 -168 -68 -207 -75 -32 -6 -35 -5 -41
25 -8 41 -8 647 0 678 9 31 19 28 43 -13 11 -19 27 -35 35 -35 8 0 29 20 47
45 18 25 36 45 40 45 4 0 26 -21 48 -47z m-492 -211 c5 -49 4 -55 -10 -49 -11
4 -17 1 -17 -9 0 -9 5 -12 12 -8 8 5 9 -6 5 -41 -4 -26 -7 -64 -7 -83 0 -49
-10 -34 -26 40 -17 79 -18 199 -2 233 l12 26 14 -26 c7 -15 16 -52 19 -83z
m577 -32 c0 -54 -5 -114 -13 -140 l-14 -45 -9 40 c-22 100 -26 160 -12 194 8
18 14 43 14 56 0 12 3 25 7 29 15 15 26 -42 27 -134z"/>
<path d="M2143 3363 c-6 -4 35 -8 91 -9 56 0 115 -4 132 -8 24 -6 27 -5 16 6
-14 14 -219 24 -239 11z"/>
<path d="M2645 3363 c-41 -10 -41 -25 0 -17 22 4 81 8 132 8 50 0 86 4 80 8
-13 8 -179 9 -212 1z"/>
<path d="M2206 3315 c-88 -31 -131 -93 -131 -186 1 -105 79 -183 185 -184 96
0 165 53 190 146 19 70 83 65 102 -8 22 -91 119 -153 213 -139 131 21 201 171
133 287 -49 84 -148 117 -237 79 -54 -24 -86 -59 -107 -118 -11 -33 -15 -36
-54 -37 -30 -1 -44 3 -47 14 -24 77 -53 113 -114 141 -52 23 -80 24 -133 5z
m130 -24 c78 -36 117 -117 95 -199 -35 -131 -187 -175 -285 -84 -144 135 10
365 190 283z m502 -18 c53 -43 74 -88 69 -150 -6 -80 -65 -147 -140 -160 -108
-17 -207 65 -207 172 0 67 63 152 125 168 45 13 118 -2 153 -30z"/>
<path d="M2181 3172 c-49 -24 -54 -47 -8 -38 27 5 36 3 41 -11 6 -15 9 -14 29
8 53 59 53 59 11 59 -22 0 -54 -8 -73 -18z"/>
<path d="M2265 3140 c-30 -31 -36 -43 -27 -52 9 -9 16 -7 32 7 11 10 20 24 20
31 0 18 36 27 59 15 28 -15 36 -14 21 4 -7 8 -19 15 -27 15 -8 0 -11 5 -8 10
3 6 -2 10 -12 10 -11 0 -37 -18 -58 -40z"/>
<path d="M2680 3182 c-26 -11 -64 -41 -59 -46 10 -10 93 14 112 33 l21 21 -29
-1 c-17 0 -37 -3 -45 -7z"/>
<path d="M2751 3167 c-6 -6 -11 -17 -11 -24 0 -8 -7 -16 -15 -19 -22 -9 -18
-31 7 -37 26 -7 58 17 58 45 0 16 3 17 21 8 11 -6 27 -10 35 -8 13 3 13 6 2
21 -16 21 -80 31 -97 14z"/>
<path d="M2460 2960 c0 -5 18 -10 41 -10 24 0 38 4 34 10 -3 6 -22 10 -41 10
-19 0 -34 -4 -34 -10z"/>
<path d="M2340 2410 c0 -5 5 -10 11 -10 5 0 7 5 4 10 -3 6 -8 10 -11 10 -2 0
-4 -4 -4 -10z"/>
<path d="M2270 2110 c0 -5 5 -10 10 -10 6 0 10 5 10 10 0 6 -4 10 -10 10 -5 0
-10 -4 -10 -10z"/>
<path d="M2610 2410 c0 -5 5 -10 11 -10 5 0 7 5 4 10 -3 6 -8 10 -11 10 -2 0
-4 -4 -4 -10z"/>
<path d="M2660 2300 c0 -5 5 -10 10 -10 6 0 10 5 10 10 0 6 -4 10 -10 10 -5 0
-10 -4 -10 -10z"/>
<path d="M2610 2180 c0 -5 5 -10 11 -10 5 0 7 5 4 10 -3 6 -8 10 -11 10 -2 0
-4 -4 -4 -10z"/>
<path d="M2660 2110 c0 -5 5 -10 10 -10 6 0 10 5 10 10 0 6 -4 10 -10 10 -5 0
-10 -4 -10 -10z"/>
</g>
</svg>
